<?xml version="1.0" encoding="utf-8"?>
<!-- Generator: Adobe Illustrator 25.3.0, SVG Export Plug-In . SVG Version: 6.00 Build 0)  -->
<svg version="1.1" id="Capa_1" xmlns="http://www.w3.org/2000/svg" xmlns:xlink="http://www.w3.org/1999/xlink" x="0px" y="0px"
	 viewBox="0 0 553 108" style="enable-background:new 0 0 553 108;" xml:space="preserve">
<style type="text/css">
	.st0{fill:#009245;}
</style>
<path class="st0" d="M0.09,58.92C0.4,25.26,0.73,8.34,9,4c3.98-2.09,10.19-2.02,14,1c9.34,7.4-3.13,26.74,6.03,52.71
	c4.12,11.69,8.44,14.21,11.05,14.97C44.93,74.11,51.16,71.99,55,68c11.11-11.54-2.31-33.88,8-42c2.71-2.14,7.34-3.5,11-2
	c12.54,5.14-1.27,37.79,15,54c12.74,12.69,36.63,8.04,42,7c7.92-1.54,19.34-3.76,27-13c12.67-15.28,3.69-36.02,14-41
	c4.56-2.2,11.24-0.53,15,3c11.63,10.91-3.09,40.97,5,45c1.41,0.7,2.89,0.3,4,0c16.98-4.61,6.45-54.99,30-71
	c11.75-7.99,31.58-7.14,42,2c18.59,16.32-1.59,51.35,18,68c8.62,7.32,23.26,9.67,31,4c15.62-11.44-1.67-51.95,11-58
	c4.23-2.02,10.6,0.37,14,4c11.7,12.48-10.03,41.41,1,52c3.71,3.56,10.27,4.24,14,2c4.32-2.59,4.71-9.04,5-17c1.23-33.5-1.09-43,5-49
	c3.9-3.84,11.45-6.44,17-4c18.95,8.34,2.31,70.04,17,75c5.8,1.96,13.22-6.04,13.81-6.69C433.84,59.37,406,15.01,420,5
	c4.57-3.27,12.25-1.92,17,1c21.25,13.07,0.02,67.63,19,77c3.79,1.87,8.6,1.65,12,0c14.38-6.97,4.88-40.03,18-46
	c5.83-2.65,13.8,1.1,18,5c9.96,9.23,2.82,22.96,10,34c4.25,6.53,14.16,13.14,39.5,12.49c0,3.85-0.01,9.75,0,17.16
	c0,1.06,0,2.85,0,2.85c0,0-553.41,0-553.41,0c-0.23,0,0-0.32,0-29.58C0.09,59.49,0.08,60.17,0.09,58.92z"/>
</svg>
