<?xml version="1.0" encoding="utf-8"?>
<!-- Generator: Adobe Illustrator 25.3.0, SVG Export Plug-In . SVG Version: 6.00 Build 0)  -->
<svg version="1.1" id="Capa_1" xmlns="http://www.w3.org/2000/svg" xmlns:xlink="http://www.w3.org/1999/xlink" x="0px" y="0px"
	 viewBox="0 0 553 108" style="enable-background:new 0 0 553 108;" xml:space="preserve">
<style type="text/css">
	.st0{fill:#009245;}
</style>
<g>
	<g>
		<path class="st0" d="M356.5,64.92c0.04,11.87,0.09,23.73,0.13,35.6c0.05,12.55,11.01,24.58,24,24c12.96-0.58,24.05-10.55,24-24
			c-0.04-11.87-0.09-23.73-0.13-35.6c-0.05-12.55-11.01-24.58-24-24C367.54,41.5,356.45,51.46,356.5,64.92L356.5,64.92z"/>
	</g>
</g>
<g>
	<path class="st0" d="M-0.41,82.4c0.14-17.32-0.06-26.23,8.91-29.42c6.81-2.42,17.77-1.75,23,1.07c10.52,7.2-14.22,20.76,20.5,12.9
		c9.58-1.51,24.57-3.89,33-0.58c10.78,3.9,8.15,48.57,42,36.75c7.73-2.72,7.73-7.15,13-14.58c3.33-4.69,13.62-19.21,31.5-21.1
		c12.3-1.25,17.53,0.84,21.5,11.18c-3.86,8.74,5.35,23.9,30,11.67c14.55-5.33,26.85-17.22,45-16.92c17.23,0.01,33.28,7.31,42,15.17
		c6.76,6.09,5.19,9,12,11.67c7.23,2.84,20.07,3.91,28,0.58c18.2-7.62-3.73-32.38,16.5-41.38c4.64-2.07,11.42-3.15,17-2.14
		c15.97,2.87,19.2,22.3,19.5,24.28c1.56,10.4-3.22,15.33,3,18.67c5.03,2.7,14.71,2.99,20,0.58c7.61-3.47,2.08-10.7,8-12.83
		c7.03-2.53,16.75,6.97,33,7.58c22.91,0.86,40.18-16.66,47-14c4.96,1.93-4.48,11.12,4,16.92c12.39,7.71,24.72,0,20-11.08
		c7.82,5.12,15.6,13,15,21.59c0,0-553.41,0-553.41,0C-0.6,103.42-0.3,86.91-0.41,82.4z"/>
	<g>
		<g>
			<path class="st0" d="M-20.37,82.11c0,8.27,0,16.55,0,24.82c0,15.38,6.69,31.55,17.57,42.43c10.41,10.41,27.48,18.24,42.43,17.57
				c15.52-0.7,31.61-5.79,42.43-17.57c10.78-11.74,17.57-26.17,17.57-42.43c0-8.27,0-16.55,0-24.82c0-15.38-6.69-31.55-17.57-42.43
				C71.65,29.28,54.58,21.44,39.63,22.11C24.11,22.8,8.02,27.9-2.8,39.68C-13.57,51.42-20.37,65.85-20.37,82.11L-20.37,82.11z"/>
		</g>
	</g>
	<g>
		<g>
			<path class="st0" d="M134.63,78.61c0,8.27,0,16.55,0,24.82c0,15.69,13.8,30.73,30,30c16.25-0.73,30-13.18,30-30
				c0-8.27,0-16.55,0-24.82c0-15.69-13.8-30.73-30-30C148.38,49.34,134.63,61.79,134.63,78.61L134.63,78.61z"/>
		</g>
	</g>
	<g>
		<g>
			<path class="st0" d="M431.63,73.36c0,8.27,0,16.55,0,24.82c0,10.77,4.69,22.08,12.3,29.7c7.28,7.28,19.24,12.77,29.7,12.3
				c22.76-1.02,42-18.45,42-42c0-8.27,0-16.55,0-24.82c0-10.77-4.69-22.08-12.3-29.7c-7.28-7.28-19.24-12.77-29.7-12.3
				C450.87,32.38,431.63,49.81,431.63,73.36L431.63,73.36z"/>
		</g>
	</g>
	<g>
		<g>
			<path class="st0" d="M221.63,96.69c0,8.27,0,16.55,0,24.82c0,12.31,5.35,25.24,14.06,33.94c8.33,8.33,21.98,14.59,33.94,14.06
				c26.01-1.16,48-21.09,48-48c0-8.27,0-16.55,0-24.82c0-12.31-5.35-25.24-14.06-33.94c-8.33-8.33-21.98-14.59-33.94-14.06
				C243.62,49.86,221.63,69.78,221.63,96.69L221.63,96.69z"/>
		</g>
	</g>
	<g>
		<g>
			<path class="st0" d="M537.5,66.37c0,9.34,0,18.67,0,28.01c0,18.83,16.56,36.87,36,36c19.5-0.87,36-15.82,36-36
				c0-9.34,0-18.67,0-28.01c0-18.83-16.56-36.87-36-36C553.99,31.25,537.5,46.19,537.5,66.37L537.5,66.37z"/>
		</g>
	</g>
	<g>
		<g>
			<path class="st0" d="M358.63,66.94c0,8.27,0,16.55,0,24.82c0,9.42,8.28,18.44,18,18c9.75-0.44,18-7.91,18-18
				c0-8.27,0-16.55,0-24.82c0-9.42-8.28-18.44-18-18C366.88,49.38,358.63,56.85,358.63,66.94L358.63,66.94z"/>
		</g>
	</g>
</g>
<path class="st0" d="M60,93"/>
</svg>
