<?xml version="1.0" encoding="utf-8"?>
<!-- Generator: Adobe Illustrator 25.3.0, SVG Export Plug-In . SVG Version: 6.00 Build 0)  -->
<svg version="1.1" id="Capa_1" xmlns="http://www.w3.org/2000/svg" xmlns:xlink="http://www.w3.org/1999/xlink" x="0px" y="0px"
	 viewBox="0 0 553 61" style="enable-background:new 0 0 553 61;" xml:space="preserve">
<style type="text/css">
	.st0{fill:#32b118;}
</style>
<path class="st0" d="M-0.5,11.92c12.58-21.25,138.26,52.35,254,21.75c41.77-11.04,53.26-27.99,91-25.23
	c42.28,3.09,48.02,25.83,107,33.06c22.19,2.72,55.87,3.72,76.21,2.09c1.31-0.11,25.78-2.09,25.79-2.09c0,3.85-0.01,9.75,0,17.16
	c0,1.06,0,2.85,0,2.85l0,0c0,0-554,0-554,0l0,0c0.03,0,0.02-19.49,0-29.58C-0.54,12.04-0.67,12.21-0.5,11.92z"/>
</svg>
