<?xml version="1.0" encoding="utf-8"?>
<!-- Generator: Adobe Illustrator 25.3.0, SVG Export Plug-In . SVG Version: 6.00 Build 0)  -->
<svg version="1.1" id="Capa_1" xmlns="http://www.w3.org/2000/svg" xmlns:xlink="http://www.w3.org/1999/xlink" x="0px" y="0px"
	 viewBox="0 0 553 108" style="enable-background:new 0 0 553 108;" xml:space="preserve">
<style type="text/css">
	.st0{fill:#009245;}
</style>
<path class="st0" d="M-0.41,62.47c0.14-29.7-0.06-44.96,8.91-50.43c6.81-4.15,17.77-3,23,1.84c4.25,3.93,3.2,9.25,3,25.71
	C34.08,75.16,37.86,80.1,41,82c3.2,1.94,8.4,2.33,12,0c12.1-7.85-3.72-40.23,9.5-49.76c2.77-2,7.34-3.37,11-1.84
	C85.56,35.45,72.99,65.79,88,80c6.9,6.53,18.77,6.5,42.5,6.42c16.49-0.05,24.73-0.08,29.5-4.42c13.25-12.06,0.27-39.06,11.5-45.16
	c4.43-2.41,11.38-0.89,15,2.75c9.26,9.31-5.59,30.11,4.5,41.41c0.24,0.27,5.75,6.29,11,5c14.19-3.48,0.3-53.81,23.5-70.28
	c11.54-8.19,31.44-7.42,42,1.84C286.66,34.36,266.43,71.6,285,85c8.82,6.36,23.83,5.49,31.5-1.33c15.06-13.4-1.01-48,11-53.26
	c4.23-1.85,10.6,0.34,14,3.67c11.7,11.46-10.03,38.02,1,47.75c3.71,3.27,10.27,3.89,14,1.84c4.32-2.38,4.71-8.3,5-15.61
	c1.23-30.76-1.09-39.48,5-44.99c4.19-3.79,12.04-6.57,17-3.67C396.2,26.8,380.81,65.62,396,84c1.38,1.67,5.39,6.52,10,6
	c4.51-0.51,7.29-5.9,8.31-7.88c11.13-21.59-7.09-61.09,5.19-69.15c4.57-3,12.25-1.77,17,0.92c20.35,11.5,0.7,61.42,19,70.7
	c3.44,1.74,8,1.98,11.5,0.42c13.61-6.08,5.51-36.77,18.5-42.65c5.69-2.58,13.78,0.36,18,4.59c8.22,8.23,0.8,20.33,10,31.22
	c1.05,1.25,6.78,8.04,13.5,6.84c5.26-0.94,9.63-6.5,11-14c7.35,8.43,14.58,20.16,15,34.38c0.03,0.88,0.03,1.76,0,2.62
	c0,0-553.41,0-553.41,0c-0.14,0-0.1-0.12-0.06-6.9c0.05-6.75,0.03-13.5,0.06-20.26C-0.37,70.11-0.43,65.92-0.41,62.47z"/>
<g>
	<g>
		<path class="st0" d="M-2.37,22.97c0,14.18,0,28.37,0,42.55c0,9.42,8.28,18.44,18,18c9.75-0.44,18-7.91,18-18
			c0-14.18,0-28.37,0-42.55c0-9.42-8.28-18.44-18-18C5.88,5.4-2.37,12.87-2.37,22.97L-2.37,22.97z"/>
	</g>
</g>
<g>
	<g>
		<path class="st0" d="M56.63,34.97c0,14.18,0,28.37,0,42.55c0,15.44,24,15.47,24,0c0-14.18,0-28.37,0-42.55
			C80.63,19.52,56.63,19.5,56.63,34.97L56.63,34.97z"/>
	</g>
</g>
<g>
	<g>
		<path class="st0" d="M167.63,45.97c0,14.18,0,28.37,0,42.55c0,15.44,24,15.47,24,0c0-14.18,0-28.37,0-42.55
			C191.63,30.52,167.63,30.5,167.63,45.97L167.63,45.97z"/>
	</g>
</g>
<g>
	<g>
		<path class="st0" d="M206.5,47.99c-0.17,9.34-0.33,18.67-0.5,28.01c-0.34,18.84,16.8,36.86,36,36c19.79-0.89,35.64-15.81,36-36
			c0.17-9.34,0.33-18.67,0.5-28.01c0.34-18.84-16.8-36.86-36-36C222.71,12.88,206.86,27.81,206.5,47.99L206.5,47.99z"/>
	</g>
</g>
<g>
	<g>
		<path class="st0" d="M537.5,34.99c0,16,0,32.01,0,48.01c0,18.83,16.56,36.87,36,36c19.5-0.87,36-15.82,36-36c0-16,0-32.01,0-48.01
			c0-18.83-16.56-36.87-36-36C553.99-0.13,537.5,14.81,537.5,34.99L537.5,34.99z"/>
	</g>
</g>
<g>
	<g>
		<path class="st0" d="M321.63,37.97c0,14.18,0,28.37,0,42.55c0,15.44,24,15.47,24,0c0-14.18,0-28.37,0-42.55
			C345.63,22.52,321.63,22.5,321.63,37.97L321.63,37.97z"/>
	</g>
</g>
<g>
	<g>
		<path class="st0" d="M413.63,24.97c-0.04,21.18-0.09,42.36-0.13,63.53c-0.02,9.42,8.29,18.43,18,18c9.77-0.44,17.98-7.91,18-18
			c0.04-21.18,0.09-42.36,0.13-63.53c0.02-9.42-8.29-18.43-18-18C421.86,7.4,413.65,14.87,413.63,24.97L413.63,24.97z"/>
	</g>
</g>
<g>
	<g>
		<path class="st0" d="M358.63,35.97c0,14.18,0,28.37,0,42.55c0,9.42,8.28,18.44,18,18c9.75-0.44,18-7.91,18-18
			c0-14.18,0-28.37,0-42.55c0-9.42-8.28-18.44-18-18C366.88,18.4,358.63,25.87,358.63,35.97L358.63,35.97z"/>
	</g>
</g>
<g>
	<g>
		<path class="st0" d="M105.63,66.97c0,14.18,0,28.37,0,42.55c0,9.42,8.28,18.44,18,18c9.75-0.44,18-7.91,18-18
			c0-14.18,0-28.37,0-42.55c0-9.42-8.28-18.44-18-18C113.88,49.4,105.63,56.87,105.63,66.97L105.63,66.97z"/>
	</g>
</g>
<g>
	<g>
		<path class="st0" d="M476.63,37.97c0,14.18,0,28.37,0,42.55c0,9.42,8.28,18.44,18,18c9.75-0.44,18-7.91,18-18
			c0-14.18,0-28.37,0-42.55c0-9.42-8.28-18.44-18-18C484.88,20.4,476.63,27.87,476.63,37.97L476.63,37.97z"/>
	</g>
</g>
<path class="st0" d="M60,93"/>
<g>
	<g>
		<path class="st0" d="M115.42,3.96c-0.15,0.09-0.29,0.17-0.44,0.26c-2.1,1.13-3.78,2.68-5.05,4.64c-1.59,1.74-2.66,3.78-3.22,6.12
			c-0.75,2.39-0.86,4.79-0.32,7.18c0.11,2.4,0.82,4.63,2.14,6.69c0.94,1.21,1.88,2.43,2.81,3.64c2.25,2.23,4.89,3.77,7.94,4.63
			c1.6,0.21,3.19,0.43,4.79,0.64c3.25-0.01,6.28-0.83,9.08-2.46c0.15-0.09,0.29-0.17,0.44-0.26c2.1-1.13,3.78-2.68,5.05-4.64
			c1.59-1.74,2.66-3.78,3.22-6.12c0.75-2.39,0.86-4.79,0.32-7.18c-0.11-2.4-0.82-4.63-2.14-6.69c-0.94-1.21-1.88-2.43-2.81-3.64
			c-2.25-2.23-4.89-3.77-7.94-4.63c-1.6-0.21-3.19-0.43-4.79-0.64C121.25,1.51,118.22,2.33,115.42,3.96L115.42,3.96z"/>
	</g>
</g>
</svg>
